<?xml version="1.0" standalone="yes"?>
<svg xmlns="http://www.w3.org/2000/svg" width="400" height="400">
<path style="fill:#f5f5f5; stroke:none;" d="M0 0L0 400L400 400L400 0L0 0z"/>
<path style="fill:#6c6c6c; stroke:none;" d="M340 356C328.975 361.794 311.623 348.069 303 341.497C273.508 319.017 253.561 285.16 246.804 249C241.582 221.054 249.481 191.056 255.765 164C261.65 138.661 266 113.047 266 87C266 69.3035 265.825 53.0787 257.396 37.0146C247.384 17.9357 226.83 11.7172 207 9C178.711 5.12372 154.607 11.78 129.09 23.4406C112.659 30.9489 96.3235 39.5021 82 50.615C68.9915 60.7076 57.2709 72.4236 49.3125 87C37.4649 108.7 34.5676 134.824 32.9105 159C28.4502 224.072 50.3873 299.144 108 336.46C146.193 361.197 192.841 366.897 237 372.184C254.379 374.265 271.597 378.015 289 380.282C300.196 381.74 313.808 384.107 325 381.606C329.353 380.634 332.753 376.646 337.09 376.063C341.295 375.498 349.705 380.489 352.972 376.396C354.125 374.952 353.966 372.727 353.995 370.999C354.033 368.783 354.45 365.471 352.972 363.603C351.381 361.594 348.239 362.143 346.015 361.657C342.556 360.9 341.15 359.156 340 356z"/>
<path style="fill:#f5f5f5; stroke:none;" d="M313 366C310.585 362.504 306.489 360.872 303 358.492C297.517 354.752 292.182 350.62 287.576 345.83C262.69 319.955 240.922 285.032 240.015 248C239.665 233.711 239.475 219.181 241.285 205C245.417 172.629 255.686 141.501 259.166 109C261.326 88.8193 263.022 61.9189 249.71 45.0038C235.986 27.5662 212.038 23 191 23C156.447 23 126.873 37.8728 97.8302 55.3148C81.6295 65.0443 65.0122 77.4066 55.1844 94C44.139 112.649 40.3657 134.769 38.9105 156C37.93 170.305 37.4337 184.713 39.2894 199C46.224 252.39 76.9847 302.936 124 329.664C141.483 339.602 160.499 343.98 180 347.804C201.773 352.074 222.98 355.519 245 358.155C267.991 360.908 289.739 366 313 366z"/>
<path style="fill:#6c6c6c; stroke:none;" d="M234 102C233.726 93.3898 228.311 88.4145 221 84.7531C208.308 78.3966 194.396 79.2816 181 83.2053C176.185 84.6157 162.834 88.0643 162.077 94.054C161.617 97.6967 165.79 104.812 169.873 104.553C173.832 104.302 178.352 100.454 182 98.9499C188.948 96.0852 196.525 94.6014 204 94.0895C209.921 93.684 215.474 94.1744 221 96.4089C225.5 98.2286 229.141 101.291 234 102M147 117C144.996 110.488 136.805 108.043 131 105.579C112.052 97.5369 94.3962 98.5179 78 111.341C72.4994 115.643 67.9697 120.066 64.1829 126C62.882 128.039 60.6826 130.894 62.0856 133.39C63.657 136.187 71.2116 140.827 74.3511 138.917C76.7193 137.477 77.6064 133.581 79.2485 131.424C83.2891 126.117 88.4884 120.98 94 117.224C102.672 111.314 114.599 107.981 125 110.609C132.711 112.557 138.857 116.927 147 117M196 170C194.889 162.639 190.407 158.047 191.17 150C191.58 145.669 192.108 141.306 192.729 137C193.155 134.046 195.148 129.175 194.212 126.314C193.091 122.886 182.337 120.999 179.988 123.618C176.353 127.671 177.183 136.974 176.961 142C176.472 153.055 173.388 166.54 188 169.38C190.662 169.898 193.299 169.978 196 170M125 186L125 182C109.477 178.258 116.466 160.451 118.611 149C119.452 144.512 122.997 136.407 116.941 134.419C114.012 133.458 108.069 132.188 105.603 134.607C103.188 136.977 104.014 141.918 103.572 145C102.247 154.24 96.4955 169.064 101.179 177.96C105.484 186.137 117.093 185.999 125 186M149 221C152.748 221 159.287 222.243 162.487 219.972C164.784 218.342 165.327 214.579 165.7 212C166.732 204.86 166 197.206 166 190C162.214 190 154.481 188.553 151.643 191.603C149.667 193.726 150.854 197.434 150.961 200C151.266 207.323 149.366 213.848 149 221M136 279C149.859 279 163.137 280.977 177 280.025C182.059 279.677 190.83 278.998 194.258 274.697C196.887 271.398 196 265.938 196 262C184.697 262.265 173.478 267.197 162 265.711C155.903 264.921 150.141 264.29 144 263.911C142.087 263.793 139.331 262.936 137.603 264.117C134.378 266.322 136 275.559 136 279z"/>
</svg>
